<svg xmlns="http://www.w3.org/2000/svg" xmlns:xlink="http://www.w3.org/1999/xlink" contentStyleType="text/css" height="208px" preserveAspectRatio="none" style="width:382px;height:208px;background:#FFFFFF;" version="1.1" viewBox="0 0 382 208" width="382px" zoomAndPan="magnify"><defs/><g><line style="stroke:#181818;stroke-width:0.5;stroke-dasharray:5.0,5.0;" x1="36" x2="36" y1="36.2969" y2="172.8281"/><line style="stroke:#181818;stroke-width:0.5;stroke-dasharray:5.0,5.0;" x1="249.0298" x2="249.0298" y1="36.2969" y2="172.8281"/><line style="stroke:#181818;stroke-width:0.5;stroke-dasharray:5.0,5.0;" x1="336.5835" x2="336.5835" y1="36.2969" y2="172.8281"/><rect fill="#E2E2F0" height="30.2969" rx="2.5" ry="2.5" style="stroke:#181818;stroke-width:0.5;" width="63.3691" x="5" y="5"/><text fill="#000000" font-family="sans-serif" font-size="14" lengthAdjust="spacing" textLength="49.3691" x="12" y="24.9951">master</text><rect fill="#E2E2F0" height="30.2969" rx="2.5" ry="2.5" style="stroke:#181818;stroke-width:0.5;" width="63.3691" x="5" y="171.8281"/><text fill="#000000" font-family="sans-serif" font-size="14" lengthAdjust="spacing" textLength="49.3691" x="12" y="191.8232">master</text><rect fill="#E2E2F0" height="30.2969" rx="2.5" ry="2.5" style="stroke:#181818;stroke-width:0.5;" width="77.5537" x="211.0298" y="5"/><text fill="#000000" font-family="sans-serif" font-size="14" lengthAdjust="spacing" textLength="63.5537" x="218.0298" y="24.9951">FeatureA</text><rect fill="#E2E2F0" height="30.2969" rx="2.5" ry="2.5" style="stroke:#181818;stroke-width:0.5;" width="77.5537" x="211.0298" y="171.8281"/><text fill="#000000" font-family="sans-serif" font-size="14" lengthAdjust="spacing" textLength="63.5537" x="218.0298" y="191.8232">FeatureA</text><rect fill="#E2E2F0" height="30.2969" rx="2.5" ry="2.5" style="stroke:#181818;stroke-width:0.5;" width="77.5811" x="298.5835" y="5"/><text fill="#000000" font-family="sans-serif" font-size="14" lengthAdjust="spacing" textLength="63.5811" x="305.5835" y="24.9951">FeatureB</text><rect fill="#E2E2F0" height="30.2969" rx="2.5" ry="2.5" style="stroke:#181818;stroke-width:0.5;" width="77.5811" x="298.5835" y="171.8281"/><text fill="#000000" font-family="sans-serif" font-size="14" lengthAdjust="spacing" textLength="63.5811" x="305.5835" y="191.8232">FeatureB</text><line style="stroke:#181818;stroke-width:1.0;" x1="247.8066" x2="237.8066" y1="67.4297" y2="63.4297"/><line style="stroke:#181818;stroke-width:1.0;" x1="247.8066" x2="237.8066" y1="67.4297" y2="71.4297"/><line style="stroke:#181818;stroke-width:1.0;" x1="36.6846" x2="248.8066" y1="67.4297" y2="67.4297"/><text fill="#000000" font-family="sans-serif" font-size="13" lengthAdjust="spacing" textLength="92.8027" x="43.6846" y="62.3638">Create branch</text><line style="stroke:#181818;stroke-width:1.0;" x1="335.374" x2="325.374" y1="96.5625" y2="92.5625"/><line style="stroke:#181818;stroke-width:1.0;" x1="335.374" x2="325.374" y1="96.5625" y2="100.5625"/><line style="stroke:#181818;stroke-width:1.0;" x1="36.6846" x2="336.374" y1="96.5625" y2="96.5625"/><text fill="#000000" font-family="sans-serif" font-size="13" lengthAdjust="spacing" textLength="92.8027" x="43.6846" y="91.4966">Create branch</text><line style="stroke:#181818;stroke-width:1.0;" x1="37.6846" x2="47.6846" y1="125.6953" y2="121.6953"/><line style="stroke:#181818;stroke-width:1.0;" x1="37.6846" x2="47.6846" y1="125.6953" y2="129.6953"/><line style="stroke:#181818;stroke-width:1.0;" x1="36.6846" x2="248.8066" y1="125.6953" y2="125.6953"/><text fill="#000000" font-family="sans-serif" font-size="13" lengthAdjust="spacing" textLength="189.1221" x="53.6846" y="120.6294">Merge new feature in master</text><line style="stroke:#181818;stroke-width:1.0;" x1="37.6846" x2="47.6846" y1="154.8281" y2="150.8281"/><line style="stroke:#181818;stroke-width:1.0;" x1="37.6846" x2="47.6846" y1="154.8281" y2="158.8281"/><line style="stroke:#181818;stroke-width:1.0;" x1="36.6846" x2="336.374" y1="154.8281" y2="154.8281"/><text fill="#000000" font-family="sans-serif" font-size="13" lengthAdjust="spacing" textLength="189.1221" x="53.6846" y="149.7622">Merge new feature in master</text><!--SRC=[oqqiBaajqhMpSqjDB2ajIdMqKd0k0Z9J5PAA4lEICxXoqHGueIk0QGGgWQYrKl1DBKfFLSXBBLT8WqWgPEOfG2HXofs8Kmu0]--></g></svg>